<svg width="19" height="19" viewBox="0 0 19 19" fill="none" xmlns="http://www.w3.org/2000/svg">
<path fill-rule="evenodd" clip-rule="evenodd" d="M9.5 1.78125C5.24004 1.78125 1.78125 5.24004 1.78125 9.5C1.78125 13.76 5.24004 17.2188 9.5 17.2188C13.76 17.2188 17.2188 13.76 17.2188 9.5C17.2188 5.24004 13.76 1.78125 9.5 1.78125ZM9.5 2.96875C13.1045 2.96875 16.0312 5.89554 16.0312 9.5C16.0312 13.1045 13.1045 16.0312 9.5 16.0312C5.89554 16.0312 2.96875 13.1045 2.96875 9.5C2.96875 5.89554 5.89554 2.96875 9.5 2.96875Z" fill="#39368E"/>
<path fill-rule="evenodd" clip-rule="evenodd" d="M6.30977 9.12842C6.30977 9.12842 7.71102 10.5305 8.5209 11.3396C9.06161 11.8811 9.93877 11.8811 10.4795 11.3396C11.2894 10.5305 12.6906 9.12842 12.6906 9.12842C12.9226 8.89726 12.9226 8.52042 12.6906 8.28926C12.4594 8.0573 12.0826 8.0573 11.8514 8.28926C11.8514 8.28926 10.4494 9.69051 9.64031 10.5004C9.56273 10.5772 9.43765 10.5772 9.36006 10.5004C8.55098 9.69051 7.14894 8.28926 7.14894 8.28926C6.91777 8.0573 6.54094 8.0573 6.30977 8.28926C6.07781 8.52042 6.07781 8.89726 6.30977 9.12842Z" fill="#39368E"/>
</svg>
