<svg width="15" height="15" viewBox="0 0 15 15" fill="none" xmlns="http://www.w3.org/2000/svg">
<path d="M13.245 9.375C13.1531 9.29712 13.0436 9.24276 12.926 9.21663C12.8084 9.1905 12.6862 9.19337 12.57 9.225C12.045 7.5375 11.82 6.2625 11.7075 4.875C11.4825 2.7 9.7575 0.9375 7.545 0.9375C5.2575 0.9375 3.5325 2.7375 3.345 4.9125C3.2325 6.3 2.97 7.575 2.445 9.225C2.32876 9.19337 2.20657 9.1905 2.08897 9.21663C1.97137 9.24276 1.8619 9.29712 1.77 9.375C1.62711 9.50661 1.53691 9.68567 1.51622 9.87884C1.49552 10.072 1.54573 10.2661 1.6575 10.425C1.8825 10.6875 2.445 11.0625 3.0075 11.2125L4.5075 11.5875C4.54078 12.2592 4.83263 12.8919 5.32193 13.3533C5.81123 13.8146 6.46004 14.0687 7.1325 14.0625H7.8825C8.55315 14.0625 9.19846 13.8063 9.68641 13.3462C10.1744 12.8861 10.4681 12.257 10.5075 11.5875C11.145 11.475 11.6325 11.3625 12.0075 11.2125C12.3538 11.0967 12.6821 10.9326 12.9825 10.725C13.095 10.65 13.245 10.575 13.3575 10.425C13.545 10.0875 13.545 9.6375 13.245 9.375ZM4.845 5.025C4.995 3.5625 6.12 2.4375 7.545 2.4375C8.9325 2.4375 10.095 3.525 10.2075 4.9875C10.3575 6.5625 10.62 7.9875 11.22 9.9C10.5075 10.0875 9.345 10.3125 7.5075 10.3125C5.67 10.3125 4.5075 10.0875 3.795 9.9C4.4325 8.025 4.7325 6.5625 4.845 5.025ZM7.8825 12.5625H7.1325C6.645 12.5625 6.195 12.225 6.0825 11.775C6.4575 11.8125 6.945 11.8125 7.5075 11.8125C8.0325 11.8125 8.52 11.8125 8.97 11.775C8.8957 12.0046 8.75029 12.2047 8.5548 12.3463C8.35931 12.4878 8.12386 12.5636 7.8825 12.5625Z" fill="#04009A"/>
</svg>
