<svg width="29" height="32" viewBox="0 0 29 32" fill="none" xmlns="http://www.w3.org/2000/svg">
<path d="M11.0041 15H17.0041V18.78C17.0041 19.1036 16.8756 19.4139 16.6468 19.6427C16.418 19.8715 16.1077 20 15.7841 20H12.2241C11.9005 20 11.5902 19.8715 11.3614 19.6427C11.1326 19.4139 11.0041 19.1036 11.0041 18.78V15Z" fill="#77ACF1"/>
<path d="M27.7141 10.29C27.6211 10.1963 27.5105 10.1219 27.3887 10.0711C27.2668 10.0203 27.1361 9.9942 27.0041 9.9942C26.8721 9.9942 26.7414 10.0203 26.6195 10.0711C26.4977 10.1219 26.3871 10.1963 26.2941 10.29L22.5941 14H5.41409L1.71409 10.29C1.52579 10.1017 1.27039 9.99591 1.00409 9.99591C0.73779 9.99591 0.482395 10.1017 0.294092 10.29C0.105788 10.4783 2.80594e-09 10.7337 0 11C-2.80594e-09 11.2663 0.105788 11.5217 0.294092 11.71L4.00409 15.41V29C4.00409 29.7956 4.32016 30.5587 4.88277 31.1213C5.44538 31.6839 6.20844 32 7.00409 32H21.0041C21.7997 32 22.5628 31.6839 23.1254 31.1213C23.688 30.5587 24.0041 29.7956 24.0041 29V15.41L27.7141 11.71C27.8078 11.617 27.8822 11.5064 27.933 11.3846C27.9838 11.2627 28.0099 11.132 28.0099 11C28.0099 10.868 27.9838 10.7373 27.933 10.6154C27.8822 10.4936 27.8078 10.383 27.7141 10.29ZM22.0041 29C22.0041 29.2652 21.8987 29.5196 21.7112 29.7071C21.5237 29.8946 21.2693 30 21.0041 30H7.00409C6.73888 30 6.48452 29.8946 6.29699 29.7071C6.10945 29.5196 6.00409 29.2652 6.00409 29V16H22.0041V29Z" fill="#04009A"/>
<path d="M11.0041 28H9.00409C8.73887 28 8.48452 27.8946 8.29698 27.7071C8.10945 27.5196 8.00409 27.2652 8.00409 27C8.00409 26.7348 8.10945 26.4804 8.29698 26.2929C8.48452 26.1054 8.73887 26 9.00409 26H11.0041C11.2693 26 11.5237 26.1054 11.7112 26.2929C11.8987 26.4804 12.0041 26.7348 12.0041 27C12.0041 27.2652 11.8987 27.5196 11.7112 27.7071C11.5237 27.8946 11.2693 28 11.0041 28Z" fill="#04009A"/>
<path d="M7.00409 10C6.87249 10.0008 6.74202 9.97554 6.62019 9.92577C6.49835 9.87601 6.38753 9.80268 6.29409 9.71L4.29409 7.71C4.10579 7.5217 4 7.2663 4 7C4 6.7337 4.10579 6.47831 4.29409 6.29C4.4824 6.1017 4.73779 5.99591 5.00409 5.99591C5.27039 5.99591 5.52579 6.1017 5.71409 6.29L7.71409 8.29C7.80782 8.38297 7.88221 8.49357 7.93298 8.61543C7.98375 8.73728 8.00989 8.86799 8.00989 9C8.00989 9.13201 7.98375 9.26272 7.93298 9.38458C7.88221 9.50644 7.80782 9.61704 7.71409 9.71C7.62065 9.80268 7.50984 9.87601 7.388 9.92577C7.26616 9.97554 7.1357 10.0008 7.00409 10Z" fill="#04009A"/>
<path d="M21.0041 10C20.8725 10.0008 20.742 9.97554 20.6202 9.92577C20.4983 9.87601 20.3875 9.80268 20.2941 9.71C20.2004 9.61704 20.126 9.50644 20.0752 9.38458C20.0244 9.26272 19.9983 9.13201 19.9983 9C19.9983 8.86799 20.0244 8.73728 20.0752 8.61543C20.126 8.49357 20.2004 8.38297 20.2941 8.29L22.2941 6.29C22.4824 6.1017 22.7378 5.99591 23.0041 5.99591C23.2704 5.99591 23.5258 6.1017 23.7141 6.29C23.9024 6.47831 24.0082 6.7337 24.0082 7C24.0082 7.2663 23.9024 7.5217 23.7141 7.71L21.7141 9.71C21.6206 9.80268 21.5098 9.87601 21.388 9.92577C21.2662 9.97554 21.1357 10.0008 21.0041 10Z" fill="#04009A"/>
<path d="M20.0041 2.83V3.33C20.0048 3.77097 19.902 4.20595 19.7041 4.6C18.6044 6.80972 16.8138 8.60033 14.6041 9.7L14.0041 10L13.4041 9.7C11.1944 8.60033 9.40377 6.80972 8.30409 4.6C8.10617 4.20595 8.00342 3.77097 8.00409 3.33V2.83C8.00409 2.07944 8.30225 1.35962 8.83298 0.828888C9.36371 0.29816 10.0835 0 10.8341 0V0C11.5844 0.000589833 12.3038 0.299137 12.8341 0.83L14.0041 2L15.1741 0.83C15.7044 0.299137 16.4238 0.000589833 17.1741 0V0C17.9247 0 18.6445 0.29816 19.1752 0.828888C19.7059 1.35962 20.0041 2.07944 20.0041 2.83Z" fill="#77ACF1"/>
</svg>
