<svg width="33" height="30" viewBox="0 0 33 30" fill="none" xmlns="http://www.w3.org/2000/svg">
<path d="M10 1H16V6.13C16 6.36074 15.9083 6.58203 15.7452 6.74518C15.582 6.90834 15.3607 7 15.13 7H10.87C10.6393 7 10.418 6.90834 10.2548 6.74518C10.0917 6.58203 10 6.36074 10 6.13V1Z" fill="#77ACF1"/>
<path d="M8 26H3C2.20435 26 1.44129 25.6839 0.87868 25.1213C0.31607 24.5587 0 23.7956 0 23L0 3C0 2.20435 0.31607 1.44129 0.87868 0.87868C1.44129 0.31607 2.20435 0 3 0H23C23.7956 0 24.5587 0.31607 25.1213 0.87868C25.6839 1.44129 26 2.20435 26 3V13C26 13.2652 25.8946 13.5196 25.7071 13.7071C25.5196 13.8946 25.2652 14 25 14C24.7348 14 24.4804 13.8946 24.2929 13.7071C24.1054 13.5196 24 13.2652 24 13V3C24 2.73478 23.8946 2.48043 23.7071 2.29289C23.5196 2.10536 23.2652 2 23 2H3C2.73478 2 2.48043 2.10536 2.29289 2.29289C2.10536 2.48043 2 2.73478 2 3V23C2 23.2652 2.10536 23.5196 2.29289 23.7071C2.48043 23.8946 2.73478 24 3 24H8C8.26522 24 8.51957 24.1054 8.70711 24.2929C8.89464 24.4804 9 24.7348 9 25C9 25.2652 8.89464 25.5196 8.70711 25.7071C8.51957 25.8946 8.26522 26 8 26Z" fill="#04009A"/>
<path d="M7 22H5C4.73478 22 4.48043 21.8946 4.29289 21.7071C4.10536 21.5196 4 21.2652 4 21C4 20.7348 4.10536 20.4804 4.29289 20.2929C4.48043 20.1054 4.73478 20 5 20H7C7.26522 20 7.51957 20.1054 7.70711 20.2929C7.89464 20.4804 8 20.7348 8 21C8 21.2652 7.89464 21.5196 7.70711 21.7071C7.51957 21.8946 7.26522 22 7 22Z" fill="#04009A"/>
<path d="M21 30C18.7613 30.0051 16.5637 29.3986 14.6445 28.2461C12.7253 27.0935 11.1574 25.4386 10.11 23.46C10.0364 23.3178 9.99792 23.1601 9.99792 23C9.99792 22.8399 10.0364 22.6821 10.11 22.54C11.1622 20.5657 12.7313 18.9146 14.6495 17.7632C16.5677 16.6119 18.7628 16.0037 21 16.0037C23.2372 16.0037 25.4323 16.6119 27.3505 17.7632C29.2687 18.9146 30.8378 20.5657 31.89 22.54C31.9636 22.6821 32.0021 22.8399 32.0021 23C32.0021 23.1601 31.9636 23.3178 31.89 23.46C30.8426 25.4386 29.2747 27.0935 27.3555 28.2461C25.4363 29.3986 23.2387 30.0051 21 30ZM12.14 23C13.0613 24.5258 14.361 25.7877 15.9133 26.6637C17.4655 27.5397 19.2177 28 21 28C22.7824 28 24.5345 27.5397 26.0867 26.6637C27.639 25.7877 28.9387 24.5258 29.86 23C28.9387 21.4742 27.639 20.2123 26.0867 19.3363C24.5345 18.4603 22.7824 18 21 18C19.2177 18 17.4655 18.4603 15.9133 19.3363C14.361 20.2123 13.0613 21.4742 12.14 23Z" fill="#04009A"/>
<path d="M21 26C22.6569 26 24 24.6569 24 23C24 21.3431 22.6569 20 21 20C19.3431 20 18 21.3431 18 23C18 24.6569 19.3431 26 21 26Z" fill="#77ACF1"/>
</svg>
