<svg width="32" height="32" viewBox="0 0 32 32" fill="none" xmlns="http://www.w3.org/2000/svg">
<path d="M10 1H16V6.13C16 6.36074 15.9083 6.58203 15.7452 6.74518C15.582 6.90834 15.3607 7 15.13 7H10.87C10.6393 7 10.418 6.90834 10.2548 6.74518C10.0917 6.58203 10 6.36074 10 6.13V1Z" fill="#77ACF1"/>
<path d="M11 26H3C2.20435 26 1.44129 25.6839 0.87868 25.1213C0.31607 24.5587 0 23.7956 0 23L0 3C0 2.20435 0.31607 1.44129 0.87868 0.87868C1.44129 0.31607 2.20435 0 3 0L23 0C23.7956 0 24.5587 0.31607 25.1213 0.87868C25.6839 1.44129 26 2.20435 26 3V11C26 11.2652 25.8946 11.5196 25.7071 11.7071C25.5196 11.8946 25.2652 12 25 12C24.7348 12 24.4804 11.8946 24.2929 11.7071C24.1054 11.5196 24 11.2652 24 11V3C24 2.73478 23.8946 2.48043 23.7071 2.29289C23.5196 2.10536 23.2652 2 23 2H3C2.73478 2 2.48043 2.10536 2.29289 2.29289C2.10536 2.48043 2 2.73478 2 3V23C2 23.2652 2.10536 23.5196 2.29289 23.7071C2.48043 23.8946 2.73478 24 3 24H11C11.2652 24 11.5196 24.1054 11.7071 24.2929C11.8946 24.4804 12 24.7348 12 25C12 25.2652 11.8946 25.5196 11.7071 25.7071C11.5196 25.8946 11.2652 26 11 26Z" fill="#04009A"/>
<path d="M7 22H5C4.73478 22 4.48043 21.8946 4.29289 21.7071C4.10536 21.5196 4 21.2652 4 21C4 20.7348 4.10536 20.4804 4.29289 20.2929C4.48043 20.1054 4.73478 20 5 20H7C7.26522 20 7.51957 20.1054 7.70711 20.2929C7.89464 20.4804 8 20.7348 8 21C8 21.2652 7.89464 21.5196 7.70711 21.7071C7.51957 21.8946 7.26522 22 7 22Z" fill="#04009A"/>
<path d="M23 32C21.22 32 19.4799 31.4722 17.9999 30.4832C16.5198 29.4943 15.3663 28.0887 14.6851 26.4442C14.0039 24.7996 13.8257 22.99 14.1729 21.2442C14.5202 19.4984 15.3774 17.8947 16.636 16.636C17.8947 15.3774 19.4984 14.5202 21.2442 14.1729C22.99 13.8257 24.7996 14.0039 26.4442 14.6851C28.0887 15.3663 29.4943 16.5198 30.4832 17.9999C31.4722 19.4799 32 21.22 32 23C32 25.387 31.0518 27.6761 29.364 29.364C27.6761 31.0518 25.387 32 23 32ZM23 16C21.6155 16 20.2622 16.4105 19.111 17.1797C17.9599 17.9489 17.0627 19.0421 16.5328 20.3212C16.003 21.6003 15.8644 23.0078 16.1345 24.3656C16.4046 25.7235 17.0713 26.9708 18.0503 27.9498C19.0292 28.9287 20.2765 29.5954 21.6344 29.8655C22.9922 30.1356 24.3997 29.997 25.6788 29.4672C26.9579 28.9373 28.0511 28.0401 28.8203 26.889C29.5895 25.7379 30 24.3845 30 23C30 21.1435 29.2625 19.363 27.9498 18.0503C26.637 16.7375 24.8565 16 23 16Z" fill="#04009A"/>
<path d="M23 28C25.7614 28 28 25.7614 28 23C28 20.2386 25.7614 18 23 18C20.2386 18 18 20.2386 18 23C18 25.7614 20.2386 28 23 28Z" fill="#77ACF1"/>
<path d="M25 22H24V21C24 20.7348 23.8946 20.4804 23.7071 20.2929C23.5196 20.1054 23.2652 20 23 20C22.7348 20 22.4804 20.1054 22.2929 20.2929C22.1054 20.4804 22 20.7348 22 21V22H21C20.7348 22 20.4804 22.1054 20.2929 22.2929C20.1054 22.4804 20 22.7348 20 23C20 23.2652 20.1054 23.5196 20.2929 23.7071C20.4804 23.8946 20.7348 24 21 24H22V25C22 25.2652 22.1054 25.5196 22.2929 25.7071C22.4804 25.8946 22.7348 26 23 26C23.2652 26 23.5196 25.8946 23.7071 25.7071C23.8946 25.5196 24 25.2652 24 25V24H25C25.2652 24 25.5196 23.8946 25.7071 23.7071C25.8946 23.5196 26 23.2652 26 23C26 22.7348 25.8946 22.4804 25.7071 22.2929C25.5196 22.1054 25.2652 22 25 22Z" fill="#04009A"/>
</svg>
