<svg width="27" height="32" viewBox="0 0 27 32" fill="none" xmlns="http://www.w3.org/2000/svg">
<path d="M19 6H17C17 5.46957 16.7893 4.96086 16.4142 4.58579C16.0391 4.21071 15.5304 4 15 4H14V3C14 2.20435 13.6839 1.44129 13.1213 0.87868C12.5587 0.31607 11.7956 0 11 0C10.2044 0 9.44129 0.31607 8.87868 0.87868C8.31607 1.44129 8 2.20435 8 3V4H7C6.46957 4 5.96086 4.21071 5.58579 4.58579C5.21071 4.96086 5 5.46957 5 6H3C2.20435 6 1.44129 6.31607 0.87868 6.87868C0.316071 7.44129 0 8.20435 0 9V29C0 29.7956 0.316071 30.5587 0.87868 31.1213C1.44129 31.6839 2.20435 32 3 32H12C12.2652 32 12.5196 31.8946 12.7071 31.7071C12.8946 31.5196 13 31.2652 13 31C13 30.7348 12.8946 30.4804 12.7071 30.2929C12.5196 30.1054 12.2652 30 12 30H3C2.73478 30 2.48043 29.8946 2.29289 29.7071C2.10536 29.5196 2 29.2652 2 29V9C2 8.73478 2.10536 8.48043 2.29289 8.29289C2.48043 8.10536 2.73478 8 3 8H5C5 8.53043 5.21071 9.03914 5.58579 9.41421C5.96086 9.78929 6.46957 10 7 10H15C15.5304 10 16.0391 9.78929 16.4142 9.41421C16.7893 9.03914 17 8.53043 17 8H19C19.2652 8 19.5196 8.10536 19.7071 8.29289C19.8946 8.48043 20 8.73478 20 9V17C20 17.2652 20.1054 17.5196 20.2929 17.7071C20.4804 17.8946 20.7348 18 21 18C21.2652 18 21.5196 17.8946 21.7071 17.7071C21.8946 17.5196 22 17.2652 22 17V9C22 8.20435 21.6839 7.44129 21.1213 6.87868C20.5587 6.31607 19.7956 6 19 6ZM10 3C10 2.73478 10.1054 2.48043 10.2929 2.29289C10.4804 2.10536 10.7348 2 11 2C11.2652 2 11.5196 2.10536 11.7071 2.29289C11.8946 2.48043 12 2.73478 12 3V4H10V3ZM7 8V6H15V7V8H7Z" fill="#04009A"/>
<path d="M12 24C11.7687 23.9987 11.5451 23.9172 11.3671 23.7695C11.1891 23.6218 11.0679 23.4169 11.024 23.1899C10.9801 22.9628 11.0162 22.7275 11.1263 22.5241C11.2364 22.3207 11.4136 22.1617 11.6277 22.0743C11.8418 21.9868 12.0796 21.9763 12.3006 22.0445C12.5216 22.1126 12.7121 22.2553 12.8398 22.4482C12.9674 22.6411 13.0242 22.8722 13.0006 23.1023C12.9769 23.3324 12.8742 23.5471 12.71 23.71C12.5184 23.8927 12.2648 23.9963 12 24Z" fill="#77ACF1"/>
<path d="M6 25C5.8684 25.0008 5.73793 24.9755 5.6161 24.9258C5.49426 24.876 5.38344 24.8027 5.29 24.71L4.29 23.71C4.1017 23.5217 3.99591 23.2663 3.99591 23C3.99591 22.7337 4.1017 22.4783 4.29 22.29C4.47831 22.1017 4.7337 21.9959 5 21.9959C5.2663 21.9959 5.5217 22.1017 5.71 22.29L6 22.59L7.29 21.29C7.38324 21.1968 7.49393 21.1228 7.61575 21.0723C7.73757 21.0219 7.86814 20.9959 8 20.9959C8.13186 20.9959 8.26243 21.0219 8.38425 21.0723C8.50607 21.1228 8.61676 21.1968 8.71 21.29C8.80324 21.3832 8.8772 21.4939 8.92766 21.6158C8.97812 21.7376 9.00409 21.8681 9.00409 22C9.00409 22.1319 8.97812 22.2624 8.92766 22.3842C8.8772 22.5061 8.80324 22.6168 8.71 22.71L6.71 24.71C6.61656 24.8027 6.50575 24.876 6.38391 24.9258C6.26207 24.9755 6.13161 25.0008 6 25Z" fill="#77ACF1"/>
<path d="M17 16H12C11.7348 16 11.4804 15.8946 11.2929 15.7071C11.1054 15.5196 11 15.2652 11 15C11 14.7348 11.1054 14.4804 11.2929 14.2929C11.4804 14.1054 11.7348 14 12 14H17C17.2652 14 17.5196 14.1054 17.7071 14.2929C17.8946 14.4804 18 14.7348 18 15C18 15.2652 17.8946 15.5196 17.7071 15.7071C17.5196 15.8946 17.2652 16 17 16Z" fill="#77ACF1"/>
<path d="M6 17C5.8684 17.0008 5.73793 16.9755 5.6161 16.9258C5.49426 16.876 5.38344 16.8027 5.29 16.71L4.29 15.71C4.1017 15.5217 3.99591 15.2663 3.99591 15C3.99591 14.7337 4.1017 14.4783 4.29 14.29C4.47831 14.1017 4.7337 13.9959 5 13.9959C5.2663 13.9959 5.5217 14.1017 5.71 14.29L6 14.59L7.29 13.29C7.47831 13.1017 7.7337 12.9959 8 12.9959C8.2663 12.9959 8.5217 13.1017 8.71 13.29C8.89831 13.4783 9.00409 13.7337 9.00409 14C9.00409 14.2663 8.89831 14.5217 8.71 14.71L6.71 16.71C6.61656 16.8027 6.50575 16.876 6.38391 16.9258C6.26207 16.9755 6.13161 17.0008 6 17Z" fill="#77ACF1"/>
<path d="M19 21H23V24C23 24.2652 22.8946 24.5196 22.7071 24.7071C22.5196 24.8946 22.2652 25 22 25H20C19.7348 25 19.4804 24.8946 19.2929 24.7071C19.1054 24.5196 19 24.2652 19 24V21Z" fill="#77ACF1"/>
<path d="M24 32H18C17.2044 32 16.4413 31.6839 15.8787 31.1213C15.3161 30.5587 15 29.7956 15 29V23C15 22.2044 15.3161 21.4413 15.8787 20.8787C16.4413 20.3161 17.2044 20 18 20H24C24.7956 20 25.5587 20.3161 26.1213 20.8787C26.6839 21.4413 27 22.2044 27 23V29C27 29.7956 26.6839 30.5587 26.1213 31.1213C25.5587 31.6839 24.7956 32 24 32ZM18 22C17.7348 22 17.4804 22.1054 17.2929 22.2929C17.1054 22.4804 17 22.7348 17 23V29C17 29.2652 17.1054 29.5196 17.2929 29.7071C17.4804 29.8946 17.7348 30 18 30H24C24.2652 30 24.5196 29.8946 24.7071 29.7071C24.8946 29.5196 25 29.2652 25 29V23C25 22.7348 24.8946 22.4804 24.7071 22.2929C24.5196 22.1054 24.2652 22 24 22H18Z" fill="#04009A"/>
</svg>
