<svg width="33" height="33" viewBox="0 0 33 33" fill="none" xmlns="http://www.w3.org/2000/svg">
<path d="M11.0428 7.04279H15.0428V10.0428C15.0428 10.308 14.9374 10.5624 14.7499 10.7499C14.5624 10.9374 14.308 11.0428 14.0428 11.0428H12.0428C11.7776 11.0428 11.5232 10.9374 11.3357 10.7499C11.1481 10.5624 11.0428 10.308 11.0428 10.0428V7.04279Z" fill="#77ACF1"/>
<path d="M17.0428 20.0428H9.04279C8.24714 20.0428 7.48407 19.7267 6.92147 19.1641C6.35886 18.6015 6.04279 17.8384 6.04279 17.0428V9.04279C6.04279 8.24714 6.35886 7.48407 6.92147 6.92147C7.48407 6.35886 8.24714 6.04279 9.04279 6.04279H17.0428C17.8384 6.04279 18.6015 6.35886 19.1641 6.92147C19.7267 7.48407 20.0428 8.24714 20.0428 9.04279V17.0428C20.0428 17.8384 19.7267 18.6015 19.1641 19.1641C18.6015 19.7267 17.8384 20.0428 17.0428 20.0428ZM9.04279 8.04279C8.77757 8.04279 8.52322 8.14814 8.33568 8.33568C8.14814 8.52322 8.04279 8.77757 8.04279 9.04279V17.0428C8.04279 17.308 8.14814 17.5624 8.33568 17.7499C8.52322 17.9374 8.77757 18.0428 9.04279 18.0428H17.0428C17.308 18.0428 17.5624 17.9374 17.7499 17.7499C17.9374 17.5624 18.0428 17.308 18.0428 17.0428V9.04279C18.0428 8.77757 17.9374 8.52322 17.7499 8.33568C17.5624 8.14814 17.308 8.04279 17.0428 8.04279H9.04279Z" fill="#04009A"/>
<path d="M31.1328 26.7128L24.1328 19.7128C25.7724 16.9937 26.3601 13.7685 25.7851 10.6458C25.2101 7.52314 23.5121 4.71886 21.0116 2.76209C18.511 0.805309 15.3808 -0.168655 12.2114 0.0239556C9.04208 0.216567 6.05282 1.56243 3.80763 3.80763C1.56243 6.05282 0.216567 9.04208 0.0239556 12.2114C-0.168655 15.3808 0.805309 18.511 2.76209 21.0116C4.71886 23.5121 7.52314 25.2101 10.6458 25.7851C13.7685 26.3601 16.9937 25.7724 19.7128 24.1328L26.7128 31.1328C27.0023 31.4236 27.3468 31.6539 27.7262 31.8101C28.1057 31.9664 28.5124 32.0454 28.9228 32.0428C29.5389 32.0396 30.1403 31.8546 30.6517 31.5111C31.1631 31.1676 31.5618 30.6808 31.7977 30.1117C32.0337 29.5426 32.0965 28.9165 31.9782 28.3119C31.8599 27.7073 31.5658 27.151 31.1328 26.7128ZM2.04279 13.0428C2.04279 10.8672 2.68793 8.74046 3.89662 6.93152C5.10532 5.12258 6.82329 3.71268 8.83327 2.88011C10.8433 2.04755 13.055 1.82971 15.1888 2.25415C17.3226 2.67859 19.2826 3.72624 20.821 5.26461C22.3593 6.80299 23.407 8.76301 23.8314 10.8968C24.2559 13.0306 24.038 15.2423 23.2055 17.2523C22.3729 19.2623 20.963 20.9803 19.1541 22.189C17.3451 23.3977 15.2184 24.0428 13.0428 24.0428C10.1254 24.0428 7.32751 22.8839 5.26461 20.821C3.20171 18.7581 2.04279 15.9602 2.04279 13.0428ZM28.9228 30.0428C28.7758 30.0428 28.6303 30.0137 28.4947 29.957C28.3591 29.9004 28.2361 29.8174 28.1328 29.7128L21.4028 22.9828C21.9735 22.5021 22.5021 21.9735 22.9828 21.4028L29.7128 28.1328C29.8178 28.2357 29.9011 28.3587 29.9578 28.4944C30.0145 28.6301 30.0434 28.7757 30.0428 28.9228C30.0428 29.2198 29.9248 29.5047 29.7147 29.7147C29.5047 29.9248 29.2198 30.0428 28.9228 30.0428Z" fill="#04009A"/>
</svg>
